<mxfile host="app.diagrams.net" modified="2024-03-21T13:18:12.962Z" agent="Mozilla/5.0 (Windows NT 10.0; Win64; x64) AppleWebKit/537.36 (KHTML, like Gecko) Chrome/121.0.0.0 Safari/537.36 OPR/107.0.0.0" etag="KKmo5nbgs2B3Lelr6NjY" version="24.0.2" type="device">
  <diagram name="Strona-1" id="AWiner5oOUAS1Hgjm13_">
    <mxGraphModel dx="1009" dy="550" grid="1" gridSize="10" guides="1" tooltips="1" connect="1" arrows="1" fold="1" page="1" pageScale="1" pageWidth="827" pageHeight="1169" math="0" shadow="0">
      <root>
        <mxCell id="0" />
        <mxCell id="1" parent="0" />
        <mxCell id="OU6gtnCaueoLbP9GBH95-1" value="" style="strokeWidth=1;shadow=0;dashed=0;align=center;html=1;shape=mxgraph.mockup.containers.browserWindow;rSize=0;strokeColor=#666666;strokeColor2=#008cff;strokeColor3=#c4c4c4;mainText=,;recursiveResize=0;" vertex="1" parent="1">
          <mxGeometry x="134" y="50" width="560" height="485" as="geometry" />
        </mxCell>
        <mxCell id="OU6gtnCaueoLbP9GBH95-2" value="Page 1" style="strokeWidth=1;shadow=0;dashed=0;align=center;html=1;shape=mxgraph.mockup.containers.anchor;fontSize=17;fontColor=#666666;align=left;whiteSpace=wrap;" vertex="1" parent="OU6gtnCaueoLbP9GBH95-1">
          <mxGeometry x="60" y="12" width="110" height="26" as="geometry" />
        </mxCell>
        <mxCell id="OU6gtnCaueoLbP9GBH95-3" value="https://www.scrum-board.com/panel/moje-tablice/" style="strokeWidth=1;shadow=0;dashed=0;align=center;html=1;shape=mxgraph.mockup.containers.anchor;rSize=0;fontSize=17;fontColor=#666666;align=left;" vertex="1" parent="OU6gtnCaueoLbP9GBH95-1">
          <mxGeometry x="130" y="60" width="250" height="26" as="geometry" />
        </mxCell>
        <mxCell id="OU6gtnCaueoLbP9GBH95-4" value="" style="verticalLabelPosition=bottom;shadow=0;dashed=0;align=center;html=1;verticalAlign=top;strokeWidth=1;shape=mxgraph.mockup.containers.userMale;strokeColor=#666666;strokeColor2=#008cff;" vertex="1" parent="OU6gtnCaueoLbP9GBH95-1">
          <mxGeometry x="520" y="110" width="40" height="40" as="geometry" />
        </mxCell>
        <mxCell id="OU6gtnCaueoLbP9GBH95-26" value="" style="strokeWidth=1;shadow=0;dashed=0;align=center;html=1;shape=mxgraph.mockup.forms.anchor;align=right;spacingRight=2;fontColor=#666666;" vertex="1" parent="OU6gtnCaueoLbP9GBH95-1">
          <mxGeometry x="60" y="200" width="50" height="18" as="geometry" />
        </mxCell>
        <mxCell id="OU6gtnCaueoLbP9GBH95-28" value="" style="strokeWidth=1;shadow=0;dashed=0;align=center;html=1;shape=mxgraph.mockup.forms.anchor;align=right;spacingRight=2;fontColor=#666666;" vertex="1" parent="OU6gtnCaueoLbP9GBH95-1">
          <mxGeometry x="60" y="230" width="50" height="18" as="geometry" />
        </mxCell>
        <mxCell id="OU6gtnCaueoLbP9GBH95-93" value="powrót do panelu" style="strokeWidth=1;shadow=0;dashed=0;align=center;html=1;shape=mxgraph.mockup.buttons.button;strokeColor=#666666;fontColor=#ffffff;mainText=;buttonStyle=round;fontSize=17;fontStyle=1;fillColor=#008cff;whiteSpace=wrap;" vertex="1" parent="OU6gtnCaueoLbP9GBH95-1">
          <mxGeometry y="115" width="110" height="30" as="geometry" />
        </mxCell>
        <mxCell id="OU6gtnCaueoLbP9GBH95-95" value="&lt;font style=&quot;font-size: 14px;&quot;&gt;Lista tablic do których jesteś przypisany&lt;/font&gt;" style="text;html=1;align=center;verticalAlign=middle;whiteSpace=wrap;rounded=0;" vertex="1" parent="OU6gtnCaueoLbP9GBH95-1">
          <mxGeometry x="116" y="170" width="140" height="30" as="geometry" />
        </mxCell>
        <mxCell id="OU6gtnCaueoLbP9GBH95-96" value="" style="shape=mxgraph.mockup.containers.marginRect;rectMarginTop=10;strokeColor=#666666;strokeWidth=1;dashed=0;rounded=1;arcSize=5;recursiveResize=0;html=1;whiteSpace=wrap;" vertex="1" parent="OU6gtnCaueoLbP9GBH95-1">
          <mxGeometry x="115" y="200" width="330" height="248" as="geometry" />
        </mxCell>
        <mxCell id="OU6gtnCaueoLbP9GBH95-98" value="" style="verticalLabelPosition=bottom;shadow=0;dashed=0;align=center;html=1;verticalAlign=top;strokeWidth=1;shape=mxgraph.mockup.forms.horSlider;strokeColor=#999999;sliderStyle=basic;sliderPos=96.8;handleStyle=circle;fillColor2=#ddeeff;direction=north;" vertex="1" parent="OU6gtnCaueoLbP9GBH95-1">
          <mxGeometry x="415" y="230" width="30" height="200" as="geometry" />
        </mxCell>
        <mxCell id="OU6gtnCaueoLbP9GBH95-99" value="Nazwa tablicy" style="strokeWidth=1;shadow=0;dashed=0;align=center;html=1;shape=mxgraph.mockup.text.textBox;fontColor=#666666;align=left;fontSize=17;spacingLeft=4;spacingTop=-3;whiteSpace=wrap;strokeColor=#666666;mainText=" vertex="1" parent="OU6gtnCaueoLbP9GBH95-1">
          <mxGeometry x="136" y="230" width="274" height="30" as="geometry" />
        </mxCell>
        <mxCell id="OU6gtnCaueoLbP9GBH95-100" value="Nazwa tablicy" style="strokeWidth=1;shadow=0;dashed=0;align=center;html=1;shape=mxgraph.mockup.text.textBox;fontColor=#666666;align=left;fontSize=17;spacingLeft=4;spacingTop=-3;whiteSpace=wrap;strokeColor=#666666;mainText=" vertex="1" parent="OU6gtnCaueoLbP9GBH95-1">
          <mxGeometry x="136" y="270" width="274" height="30" as="geometry" />
        </mxCell>
        <mxCell id="OU6gtnCaueoLbP9GBH95-101" value="Nazwa tablicy" style="strokeWidth=1;shadow=0;dashed=0;align=center;html=1;shape=mxgraph.mockup.text.textBox;fontColor=#666666;align=left;fontSize=17;spacingLeft=4;spacingTop=-3;whiteSpace=wrap;strokeColor=#666666;mainText=" vertex="1" parent="OU6gtnCaueoLbP9GBH95-1">
          <mxGeometry x="136" y="309" width="274" height="30" as="geometry" />
        </mxCell>
        <mxCell id="OU6gtnCaueoLbP9GBH95-102" value="Nazwa tablicy" style="strokeWidth=1;shadow=0;dashed=0;align=center;html=1;shape=mxgraph.mockup.text.textBox;fontColor=#666666;align=left;fontSize=17;spacingLeft=4;spacingTop=-3;whiteSpace=wrap;strokeColor=#666666;mainText=" vertex="1" parent="OU6gtnCaueoLbP9GBH95-1">
          <mxGeometry x="136" y="350" width="274" height="30" as="geometry" />
        </mxCell>
        <mxCell id="OU6gtnCaueoLbP9GBH95-103" value="Nazwa tablicy" style="strokeWidth=1;shadow=0;dashed=0;align=center;html=1;shape=mxgraph.mockup.text.textBox;fontColor=#666666;align=left;fontSize=17;spacingLeft=4;spacingTop=-3;whiteSpace=wrap;strokeColor=#666666;mainText=" vertex="1" parent="OU6gtnCaueoLbP9GBH95-1">
          <mxGeometry x="136" y="390" width="274" height="30" as="geometry" />
        </mxCell>
        <mxCell id="OU6gtnCaueoLbP9GBH95-106" value="" style="verticalLabelPosition=bottom;aspect=fixed;html=1;shape=mxgraph.salesforce.social_studio;" vertex="1" parent="OU6gtnCaueoLbP9GBH95-1">
          <mxGeometry x="380" y="230" width="30" height="30" as="geometry" />
        </mxCell>
        <mxCell id="OU6gtnCaueoLbP9GBH95-107" value="5" style="text;html=1;align=center;verticalAlign=middle;whiteSpace=wrap;rounded=0;" vertex="1" parent="OU6gtnCaueoLbP9GBH95-1">
          <mxGeometry x="336" y="230" width="60" height="30" as="geometry" />
        </mxCell>
        <mxCell id="OU6gtnCaueoLbP9GBH95-108" value="" style="verticalLabelPosition=bottom;aspect=fixed;html=1;shape=mxgraph.salesforce.social_studio;" vertex="1" parent="OU6gtnCaueoLbP9GBH95-1">
          <mxGeometry x="380" y="270" width="30" height="30" as="geometry" />
        </mxCell>
        <mxCell id="OU6gtnCaueoLbP9GBH95-127" value="" style="verticalLabelPosition=bottom;aspect=fixed;html=1;shape=mxgraph.salesforce.social_studio;" vertex="1" parent="OU6gtnCaueoLbP9GBH95-1">
          <mxGeometry x="380" y="309" width="30" height="30" as="geometry" />
        </mxCell>
        <mxCell id="OU6gtnCaueoLbP9GBH95-128" value="" style="verticalLabelPosition=bottom;aspect=fixed;html=1;shape=mxgraph.salesforce.social_studio;" vertex="1" parent="OU6gtnCaueoLbP9GBH95-1">
          <mxGeometry x="380" y="350" width="30" height="30" as="geometry" />
        </mxCell>
        <mxCell id="OU6gtnCaueoLbP9GBH95-129" value="" style="verticalLabelPosition=bottom;aspect=fixed;html=1;shape=mxgraph.salesforce.social_studio;" vertex="1" parent="OU6gtnCaueoLbP9GBH95-1">
          <mxGeometry x="380" y="390" width="30" height="30" as="geometry" />
        </mxCell>
        <mxCell id="OU6gtnCaueoLbP9GBH95-130" value="10" style="text;html=1;align=center;verticalAlign=middle;whiteSpace=wrap;rounded=0;" vertex="1" parent="OU6gtnCaueoLbP9GBH95-1">
          <mxGeometry x="336" y="270" width="60" height="30" as="geometry" />
        </mxCell>
        <mxCell id="OU6gtnCaueoLbP9GBH95-131" value="1" style="text;html=1;align=center;verticalAlign=middle;whiteSpace=wrap;rounded=0;" vertex="1" parent="OU6gtnCaueoLbP9GBH95-1">
          <mxGeometry x="336" y="309" width="60" height="30" as="geometry" />
        </mxCell>
        <mxCell id="OU6gtnCaueoLbP9GBH95-132" value="1" style="text;html=1;align=center;verticalAlign=middle;whiteSpace=wrap;rounded=0;" vertex="1" parent="OU6gtnCaueoLbP9GBH95-1">
          <mxGeometry x="336" y="350" width="60" height="30" as="geometry" />
        </mxCell>
        <mxCell id="OU6gtnCaueoLbP9GBH95-133" value="2" style="text;html=1;align=center;verticalAlign=middle;whiteSpace=wrap;rounded=0;" vertex="1" parent="OU6gtnCaueoLbP9GBH95-1">
          <mxGeometry x="336" y="390" width="60" height="30" as="geometry" />
        </mxCell>
      </root>
    </mxGraphModel>
  </diagram>
</mxfile>
